<svg xmlns="http://www.w3.org/2000/svg" viewBox="0 0 200 200" width="100%" height="100%">
  <rect width="200" height="200" fill="#121212"/>
  
  <g transform="translate(50, 40)">
    <path d="M 0,0 
             L 50,0 
             L 50,23 
             A 12,12 0 0,0 38,11 
             L 17,11 
             L 17,62 
             L 38,83 
             L 50,71 
             L 50,96 
             L 50,100
             A 70,70 0 0,1 0,65 
             Z" 
          fill="#FFFFFF" />
          
    <path d="M 50,100 
             A 70,70 0 0,1 100,65 
             L 100,0 
             L 85,0 
             L 85,63 
             L 50,96 
             L 50,54 
             L 62,45 
             L 62,19 
             L 50,29 
             Z" 
          fill="#CE1D2C" />
  </g>
</svg>
